<!-- Program: Rectangles -->
<svg width="800" height="800">
<line x1="0" y1="0" x2="50" y2="0" style="stroke: rgb(0,0,0); stroke-width: 1" />
<line x1="50" y1="0" x2="50" y2="50" style="stroke: rgb(0,0,0); stroke-width: 1" />
<line x1="50" y1="50" x2="0" y2="50" style="stroke: rgb(0,0,0); stroke-width: 1" />
<line x1="0" y1="50" x2="0" y2="0" style="stroke: rgb(0,0,0); stroke-width: 1" />
<line x1="75" y1="0" x2="125" y2="0" style="stroke: rgb(0,0,0); stroke-width: 1" />
<line x1="125" y1="0" x2="125" y2="50" style="stroke: rgb(0,0,0); stroke-width: 1" />
<line x1="125" y1="50" x2="75" y2="50" style="stroke: rgb(0,0,0); stroke-width: 1" />
<line x1="75" y1="50" x2="75" y2="0" style="stroke: rgb(0,0,0); stroke-width: 1" />
<line x1="150" y1="0" x2="200" y2="0" style="stroke: rgb(0,0,0); stroke-width: 1" />
<line x1="200" y1="0" x2="200" y2="50" style="stroke: rgb(0,0,0); stroke-width: 1" />
<line x1="200" y1="50" x2="150" y2="50" style="stroke: rgb(0,0,0); stroke-width: 1" />
<line x1="150" y1="50" x2="150" y2="0" style="stroke: rgb(0,0,0); stroke-width: 1" />
<line x1="225" y1="0" x2="275" y2="0" style="stroke: rgb(0,0,0); stroke-width: 1" />
<line x1="275" y1="0" x2="275" y2="50" style="stroke: rgb(0,0,0); stroke-width: 1" />
<line x1="275" y1="50" x2="225" y2="50" style="stroke: rgb(0,0,0); stroke-width: 1" />
<line x1="225" y1="50" x2="225" y2="0" style="stroke: rgb(0,0,0); stroke-width: 1" />
<line x1="300" y1="0" x2="350" y2="0" style="stroke: rgb(0,0,0); stroke-width: 1" />
<line x1="350" y1="0" x2="350" y2="50" style="stroke: rgb(0,0,0); stroke-width: 1" />
<line x1="350" y1="50" x2="300" y2="50" style="stroke: rgb(0,0,0); stroke-width: 1" />
<line x1="300" y1="50" x2="300" y2="0" style="stroke: rgb(0,0,0); stroke-width: 1" />
</svg>
