<!-- Program: Rectangles -->
<svg width="800" height="800">
<line x1="0" y1="0" x2="50" y2="0" style="stroke: rgb(94,36,227); stroke-width: 2" />
<line x1="50" y1="0" x2="50" y2="50" style="stroke: rgb(94,36,227); stroke-width: 2" />
<line x1="50" y1="50" x2="0" y2="50" style="stroke: rgb(94,36,227); stroke-width: 2" />
<line x1="0" y1="50" x2="0" y2="0" style="stroke: rgb(94,36,227); stroke-width: 2" />
<line x1="75" y1="0" x2="125" y2="0" style="stroke: rgb(249,244,24); stroke-width: 2" />
<line x1="125" y1="0" x2="125" y2="50" style="stroke: rgb(249,244,24); stroke-width: 2" />
<line x1="125" y1="50" x2="75" y2="50" style="stroke: rgb(249,244,24); stroke-width: 2" />
<line x1="75" y1="50" x2="75" y2="0" style="stroke: rgb(249,244,24); stroke-width: 2" />
<line x1="150" y1="0" x2="200" y2="0" style="stroke: rgb(35,199,161); stroke-width: 2" />
<line x1="200" y1="0" x2="200" y2="50" style="stroke: rgb(35,199,161); stroke-width: 2" />
<line x1="200" y1="50" x2="150" y2="50" style="stroke: rgb(35,199,161); stroke-width: 2" />
<line x1="150" y1="50" x2="150" y2="0" style="stroke: rgb(35,199,161); stroke-width: 2" />
<line x1="225" y1="0" x2="275" y2="0" style="stroke: rgb(62,69,25); stroke-width: 2" />
<line x1="275" y1="0" x2="275" y2="50" style="stroke: rgb(62,69,25); stroke-width: 2" />
<line x1="275" y1="50" x2="225" y2="50" style="stroke: rgb(62,69,25); stroke-width: 2" />
<line x1="225" y1="50" x2="225" y2="0" style="stroke: rgb(62,69,25); stroke-width: 2" />
<line x1="300" y1="0" x2="350" y2="0" style="stroke: rgb(240,252,245); stroke-width: 2" />
<line x1="350" y1="0" x2="350" y2="50" style="stroke: rgb(240,252,245); stroke-width: 2" />
<line x1="350" y1="50" x2="300" y2="50" style="stroke: rgb(240,252,245); stroke-width: 2" />
<line x1="300" y1="50" x2="300" y2="0" style="stroke: rgb(240,252,245); stroke-width: 2" />
<line x1="375" y1="0" x2="425" y2="0" style="stroke: rgb(202,183,186); stroke-width: 2" />
<line x1="425" y1="0" x2="425" y2="50" style="stroke: rgb(202,183,186); stroke-width: 2" />
<line x1="425" y1="50" x2="375" y2="50" style="stroke: rgb(202,183,186); stroke-width: 2" />
<line x1="375" y1="50" x2="375" y2="0" style="stroke: rgb(202,183,186); stroke-width: 2" />
<line x1="450" y1="0" x2="500" y2="0" style="stroke: rgb(67,91,66); stroke-width: 2" />
<line x1="500" y1="0" x2="500" y2="50" style="stroke: rgb(67,91,66); stroke-width: 2" />
<line x1="500" y1="50" x2="450" y2="50" style="stroke: rgb(67,91,66); stroke-width: 2" />
<line x1="450" y1="50" x2="450" y2="0" style="stroke: rgb(67,91,66); stroke-width: 2" />
<line x1="525" y1="0" x2="575" y2="0" style="stroke: rgb(37,246,160); stroke-width: 2" />
<line x1="575" y1="0" x2="575" y2="50" style="stroke: rgb(37,246,160); stroke-width: 2" />
<line x1="575" y1="50" x2="525" y2="50" style="stroke: rgb(37,246,160); stroke-width: 2" />
<line x1="525" y1="50" x2="525" y2="0" style="stroke: rgb(37,246,160); stroke-width: 2" />
<line x1="600" y1="0" x2="650" y2="0" style="stroke: rgb(222,168,173); stroke-width: 2" />
<line x1="650" y1="0" x2="650" y2="50" style="stroke: rgb(222,168,173); stroke-width: 2" />
<line x1="650" y1="50" x2="600" y2="50" style="stroke: rgb(222,168,173); stroke-width: 2" />
<line x1="600" y1="50" x2="600" y2="0" style="stroke: rgb(222,168,173); stroke-width: 2" />
<line x1="675" y1="0" x2="725" y2="0" style="stroke: rgb(214,80,86); stroke-width: 2" />
<line x1="725" y1="0" x2="725" y2="50" style="stroke: rgb(214,80,86); stroke-width: 2" />
<line x1="725" y1="50" x2="675" y2="50" style="stroke: rgb(214,80,86); stroke-width: 2" />
<line x1="675" y1="50" x2="675" y2="0" style="stroke: rgb(214,80,86); stroke-width: 2" />
<line x1="0" y1="125" x2="50" y2="125" style="stroke: rgb(155,238,115); stroke-width: 2" />
<line x1="50" y1="125" x2="50" y2="175" style="stroke: rgb(155,238,115); stroke-width: 2" />
<line x1="50" y1="175" x2="0" y2="175" style="stroke: rgb(155,238,115); stroke-width: 2" />
<line x1="0" y1="175" x2="0" y2="125" style="stroke: rgb(155,238,115); stroke-width: 2" />
<line x1="75" y1="125" x2="125" y2="125" style="stroke: rgb(240,250,109); stroke-width: 2" />
<line x1="125" y1="125" x2="125" y2="175" style="stroke: rgb(240,250,109); stroke-width: 2" />
<line x1="125" y1="175" x2="75" y2="175" style="stroke: rgb(240,250,109); stroke-width: 2" />
<line x1="75" y1="175" x2="75" y2="125" style="stroke: rgb(240,250,109); stroke-width: 2" />
<line x1="150" y1="125" x2="200" y2="125" style="stroke: rgb(115,166,140); stroke-width: 2" />
<line x1="200" y1="125" x2="200" y2="175" style="stroke: rgb(115,166,140); stroke-width: 2" />
<line x1="200" y1="175" x2="150" y2="175" style="stroke: rgb(115,166,140); stroke-width: 2" />
<line x1="150" y1="175" x2="150" y2="125" style="stroke: rgb(115,166,140); stroke-width: 2" />
<line x1="225" y1="125" x2="275" y2="125" style="stroke: rgb(10,170,97); stroke-width: 2" />
<line x1="275" y1="125" x2="275" y2="175" style="stroke: rgb(10,170,97); stroke-width: 2" />
<line x1="275" y1="175" x2="225" y2="175" style="stroke: rgb(10,170,97); stroke-width: 2" />
<line x1="225" y1="175" x2="225" y2="125" style="stroke: rgb(10,170,97); stroke-width: 2" />
<line x1="300" y1="125" x2="350" y2="125" style="stroke: rgb(231,32,240); stroke-width: 2" />
<line x1="350" y1="125" x2="350" y2="175" style="stroke: rgb(231,32,240); stroke-width: 2" />
<line x1="350" y1="175" x2="300" y2="175" style="stroke: rgb(231,32,240); stroke-width: 2" />
<line x1="300" y1="175" x2="300" y2="125" style="stroke: rgb(231,32,240); stroke-width: 2" />
<line x1="375" y1="125" x2="425" y2="125" style="stroke: rgb(120,51,33); stroke-width: 2" />
<line x1="425" y1="125" x2="425" y2="175" style="stroke: rgb(120,51,33); stroke-width: 2" />
<line x1="425" y1="175" x2="375" y2="175" style="stroke: rgb(120,51,33); stroke-width: 2" />
<line x1="375" y1="175" x2="375" y2="125" style="stroke: rgb(120,51,33); stroke-width: 2" />
<line x1="450" y1="125" x2="500" y2="125" style="stroke: rgb(1,99,206); stroke-width: 2" />
<line x1="500" y1="125" x2="500" y2="175" style="stroke: rgb(1,99,206); stroke-width: 2" />
<line x1="500" y1="175" x2="450" y2="175" style="stroke: rgb(1,99,206); stroke-width: 2" />
<line x1="450" y1="175" x2="450" y2="125" style="stroke: rgb(1,99,206); stroke-width: 2" />
<line x1="525" y1="125" x2="575" y2="125" style="stroke: rgb(124,140,166); stroke-width: 2" />
<line x1="575" y1="125" x2="575" y2="175" style="stroke: rgb(124,140,166); stroke-width: 2" />
<line x1="575" y1="175" x2="525" y2="175" style="stroke: rgb(124,140,166); stroke-width: 2" />
<line x1="525" y1="175" x2="525" y2="125" style="stroke: rgb(124,140,166); stroke-width: 2" />
<line x1="600" y1="125" x2="650" y2="125" style="stroke: rgb(159,207,227); stroke-width: 2" />
<line x1="650" y1="125" x2="650" y2="175" style="stroke: rgb(159,207,227); stroke-width: 2" />
<line x1="650" y1="175" x2="600" y2="175" style="stroke: rgb(159,207,227); stroke-width: 2" />
<line x1="600" y1="175" x2="600" y2="125" style="stroke: rgb(159,207,227); stroke-width: 2" />
<line x1="675" y1="125" x2="725" y2="125" style="stroke: rgb(114,40,4); stroke-width: 2" />
<line x1="725" y1="125" x2="725" y2="175" style="stroke: rgb(114,40,4); stroke-width: 2" />
<line x1="725" y1="175" x2="675" y2="175" style="stroke: rgb(114,40,4); stroke-width: 2" />
<line x1="675" y1="175" x2="675" y2="125" style="stroke: rgb(114,40,4); stroke-width: 2" />
<line x1="0" y1="250" x2="50" y2="250" style="stroke: rgb(47,29,105); stroke-width: 2" />
<line x1="50" y1="250" x2="50" y2="300" style="stroke: rgb(47,29,105); stroke-width: 2" />
<line x1="50" y1="300" x2="0" y2="300" style="stroke: rgb(47,29,105); stroke-width: 2" />
<line x1="0" y1="300" x2="0" y2="250" style="stroke: rgb(47,29,105); stroke-width: 2" />
<line x1="75" y1="250" x2="125" y2="250" style="stroke: rgb(243,1,132); stroke-width: 2" />
<line x1="125" y1="250" x2="125" y2="300" style="stroke: rgb(243,1,132); stroke-width: 2" />
<line x1="125" y1="300" x2="75" y2="300" style="stroke: rgb(243,1,132); stroke-width: 2" />
<line x1="75" y1="300" x2="75" y2="250" style="stroke: rgb(243,1,132); stroke-width: 2" />
<line x1="150" y1="250" x2="200" y2="250" style="stroke: rgb(35,152,182); stroke-width: 2" />
<line x1="200" y1="250" x2="200" y2="300" style="stroke: rgb(35,152,182); stroke-width: 2" />
<line x1="200" y1="300" x2="150" y2="300" style="stroke: rgb(35,152,182); stroke-width: 2" />
<line x1="150" y1="300" x2="150" y2="250" style="stroke: rgb(35,152,182); stroke-width: 2" />
<line x1="225" y1="250" x2="275" y2="250" style="stroke: rgb(201,139,183); stroke-width: 2" />
<line x1="275" y1="250" x2="275" y2="300" style="stroke: rgb(201,139,183); stroke-width: 2" />
<line x1="275" y1="300" x2="225" y2="300" style="stroke: rgb(201,139,183); stroke-width: 2" />
<line x1="225" y1="300" x2="225" y2="250" style="stroke: rgb(201,139,183); stroke-width: 2" />
<line x1="300" y1="250" x2="350" y2="250" style="stroke: rgb(24,175,141); stroke-width: 2" />
<line x1="350" y1="250" x2="350" y2="300" style="stroke: rgb(24,175,141); stroke-width: 2" />
<line x1="350" y1="300" x2="300" y2="300" style="stroke: rgb(24,175,141); stroke-width: 2" />
<line x1="300" y1="300" x2="300" y2="250" style="stroke: rgb(24,175,141); stroke-width: 2" />
<line x1="375" y1="250" x2="425" y2="250" style="stroke: rgb(134,48,160); stroke-width: 2" />
<line x1="425" y1="250" x2="425" y2="300" style="stroke: rgb(134,48,160); stroke-width: 2" />
<line x1="425" y1="300" x2="375" y2="300" style="stroke: rgb(134,48,160); stroke-width: 2" />
<line x1="375" y1="300" x2="375" y2="250" style="stroke: rgb(134,48,160); stroke-width: 2" />
<line x1="450" y1="250" x2="500" y2="250" style="stroke: rgb(97,215,110); stroke-width: 2" />
<line x1="500" y1="250" x2="500" y2="300" style="stroke: rgb(97,215,110); stroke-width: 2" />
<line x1="500" y1="300" x2="450" y2="300" style="stroke: rgb(97,215,110); stroke-width: 2" />
<line x1="450" y1="300" x2="450" y2="250" style="stroke: rgb(97,215,110); stroke-width: 2" />
<line x1="525" y1="250" x2="575" y2="250" style="stroke: rgb(149,156,178); stroke-width: 2" />
<line x1="575" y1="250" x2="575" y2="300" style="stroke: rgb(149,156,178); stroke-width: 2" />
<line x1="575" y1="300" x2="525" y2="300" style="stroke: rgb(149,156,178); stroke-width: 2" />
<line x1="525" y1="300" x2="525" y2="250" style="stroke: rgb(149,156,178); stroke-width: 2" />
<line x1="600" y1="250" x2="650" y2="250" style="stroke: rgb(176,51,241); stroke-width: 2" />
<line x1="650" y1="250" x2="650" y2="300" style="stroke: rgb(176,51,241); stroke-width: 2" />
<line x1="650" y1="300" x2="600" y2="300" style="stroke: rgb(176,51,241); stroke-width: 2" />
<line x1="600" y1="300" x2="600" y2="250" style="stroke: rgb(176,51,241); stroke-width: 2" />
<line x1="675" y1="250" x2="725" y2="250" style="stroke: rgb(27,178,62); stroke-width: 2" />
<line x1="725" y1="250" x2="725" y2="300" style="stroke: rgb(27,178,62); stroke-width: 2" />
<line x1="725" y1="300" x2="675" y2="300" style="stroke: rgb(27,178,62); stroke-width: 2" />
<line x1="675" y1="300" x2="675" y2="250" style="stroke: rgb(27,178,62); stroke-width: 2" />
<line x1="0" y1="375" x2="50" y2="375" style="stroke: rgb(26,92,99); stroke-width: 2" />
<line x1="50" y1="375" x2="50" y2="425" style="stroke: rgb(26,92,99); stroke-width: 2" />
<line x1="50" y1="425" x2="0" y2="425" style="stroke: rgb(26,92,99); stroke-width: 2" />
<line x1="0" y1="425" x2="0" y2="375" style="stroke: rgb(26,92,99); stroke-width: 2" />
<line x1="75" y1="375" x2="125" y2="375" style="stroke: rgb(67,172,131); stroke-width: 2" />
<line x1="125" y1="375" x2="125" y2="425" style="stroke: rgb(67,172,131); stroke-width: 2" />
<line x1="125" y1="425" x2="75" y2="425" style="stroke: rgb(67,172,131); stroke-width: 2" />
<line x1="75" y1="425" x2="75" y2="375" style="stroke: rgb(67,172,131); stroke-width: 2" />
<line x1="150" y1="375" x2="200" y2="375" style="stroke: rgb(206,62,201); stroke-width: 2" />
<line x1="200" y1="375" x2="200" y2="425" style="stroke: rgb(206,62,201); stroke-width: 2" />
<line x1="200" y1="425" x2="150" y2="425" style="stroke: rgb(206,62,201); stroke-width: 2" />
<line x1="150" y1="425" x2="150" y2="375" style="stroke: rgb(206,62,201); stroke-width: 2" />
<line x1="225" y1="375" x2="275" y2="375" style="stroke: rgb(135,197,107); stroke-width: 2" />
<line x1="275" y1="375" x2="275" y2="425" style="stroke: rgb(135,197,107); stroke-width: 2" />
<line x1="275" y1="425" x2="225" y2="425" style="stroke: rgb(135,197,107); stroke-width: 2" />
<line x1="225" y1="425" x2="225" y2="375" style="stroke: rgb(135,197,107); stroke-width: 2" />
<line x1="300" y1="375" x2="350" y2="375" style="stroke: rgb(190,15,16); stroke-width: 2" />
<line x1="350" y1="375" x2="350" y2="425" style="stroke: rgb(190,15,16); stroke-width: 2" />
<line x1="350" y1="425" x2="300" y2="425" style="stroke: rgb(190,15,16); stroke-width: 2" />
<line x1="300" y1="425" x2="300" y2="375" style="stroke: rgb(190,15,16); stroke-width: 2" />
<line x1="375" y1="375" x2="425" y2="375" style="stroke: rgb(109,126,145); stroke-width: 2" />
<line x1="425" y1="375" x2="425" y2="425" style="stroke: rgb(109,126,145); stroke-width: 2" />
<line x1="425" y1="425" x2="375" y2="425" style="stroke: rgb(109,126,145); stroke-width: 2" />
<line x1="375" y1="425" x2="375" y2="375" style="stroke: rgb(109,126,145); stroke-width: 2" />
<line x1="450" y1="375" x2="500" y2="375" style="stroke: rgb(169,40,186); stroke-width: 2" />
<line x1="500" y1="375" x2="500" y2="425" style="stroke: rgb(169,40,186); stroke-width: 2" />
<line x1="500" y1="425" x2="450" y2="425" style="stroke: rgb(169,40,186); stroke-width: 2" />
<line x1="450" y1="425" x2="450" y2="375" style="stroke: rgb(169,40,186); stroke-width: 2" />
<line x1="525" y1="375" x2="575" y2="375" style="stroke: rgb(87,14,141); stroke-width: 2" />
<line x1="575" y1="375" x2="575" y2="425" style="stroke: rgb(87,14,141); stroke-width: 2" />
<line x1="575" y1="425" x2="525" y2="425" style="stroke: rgb(87,14,141); stroke-width: 2" />
<line x1="525" y1="425" x2="525" y2="375" style="stroke: rgb(87,14,141); stroke-width: 2" />
<line x1="600" y1="375" x2="650" y2="375" style="stroke: rgb(155,150,77); stroke-width: 2" />
<line x1="650" y1="375" x2="650" y2="425" style="stroke: rgb(155,150,77); stroke-width: 2" />
<line x1="650" y1="425" x2="600" y2="425" style="stroke: rgb(155,150,77); stroke-width: 2" />
<line x1="600" y1="425" x2="600" y2="375" style="stroke: rgb(155,150,77); stroke-width: 2" />
<line x1="675" y1="375" x2="725" y2="375" style="stroke: rgb(36,39,243); stroke-width: 2" />
<line x1="725" y1="375" x2="725" y2="425" style="stroke: rgb(36,39,243); stroke-width: 2" />
<line x1="725" y1="425" x2="675" y2="425" style="stroke: rgb(36,39,243); stroke-width: 2" />
<line x1="675" y1="425" x2="675" y2="375" style="stroke: rgb(36,39,243); stroke-width: 2" />
<line x1="0" y1="500" x2="50" y2="500" style="stroke: rgb(246,181,7); stroke-width: 2" />
<line x1="50" y1="500" x2="50" y2="550" style="stroke: rgb(246,181,7); stroke-width: 2" />
<line x1="50" y1="550" x2="0" y2="550" style="stroke: rgb(246,181,7); stroke-width: 2" />
<line x1="0" y1="550" x2="0" y2="500" style="stroke: rgb(246,181,7); stroke-width: 2" />
<line x1="75" y1="500" x2="125" y2="500" style="stroke: rgb(116,200,246); stroke-width: 2" />
<line x1="125" y1="500" x2="125" y2="550" style="stroke: rgb(116,200,246); stroke-width: 2" />
<line x1="125" y1="550" x2="75" y2="550" style="stroke: rgb(116,200,246); stroke-width: 2" />
<line x1="75" y1="550" x2="75" y2="500" style="stroke: rgb(116,200,246); stroke-width: 2" />
<line x1="150" y1="500" x2="200" y2="500" style="stroke: rgb(26,166,49); stroke-width: 2" />
<line x1="200" y1="500" x2="200" y2="550" style="stroke: rgb(26,166,49); stroke-width: 2" />
<line x1="200" y1="550" x2="150" y2="550" style="stroke: rgb(26,166,49); stroke-width: 2" />
<line x1="150" y1="550" x2="150" y2="500" style="stroke: rgb(26,166,49); stroke-width: 2" />
<line x1="225" y1="500" x2="275" y2="500" style="stroke: rgb(155,195,175); stroke-width: 2" />
<line x1="275" y1="500" x2="275" y2="550" style="stroke: rgb(155,195,175); stroke-width: 2" />
<line x1="275" y1="550" x2="225" y2="550" style="stroke: rgb(155,195,175); stroke-width: 2" />
<line x1="225" y1="550" x2="225" y2="500" style="stroke: rgb(155,195,175); stroke-width: 2" />
<line x1="300" y1="500" x2="350" y2="500" style="stroke: rgb(18,31,119); stroke-width: 2" />
<line x1="350" y1="500" x2="350" y2="550" style="stroke: rgb(18,31,119); stroke-width: 2" />
<line x1="350" y1="550" x2="300" y2="550" style="stroke: rgb(18,31,119); stroke-width: 2" />
<line x1="300" y1="550" x2="300" y2="500" style="stroke: rgb(18,31,119); stroke-width: 2" />
<line x1="375" y1="500" x2="425" y2="500" style="stroke: rgb(141,250,70); stroke-width: 2" />
<line x1="425" y1="500" x2="425" y2="550" style="stroke: rgb(141,250,70); stroke-width: 2" />
<line x1="425" y1="550" x2="375" y2="550" style="stroke: rgb(141,250,70); stroke-width: 2" />
<line x1="375" y1="550" x2="375" y2="500" style="stroke: rgb(141,250,70); stroke-width: 2" />
<line x1="450" y1="500" x2="500" y2="500" style="stroke: rgb(122,119,41); stroke-width: 2" />
<line x1="500" y1="500" x2="500" y2="550" style="stroke: rgb(122,119,41); stroke-width: 2" />
<line x1="500" y1="550" x2="450" y2="550" style="stroke: rgb(122,119,41); stroke-width: 2" />
<line x1="450" y1="550" x2="450" y2="500" style="stroke: rgb(122,119,41); stroke-width: 2" />
<line x1="525" y1="500" x2="575" y2="500" style="stroke: rgb(146,229,44); stroke-width: 2" />
<line x1="575" y1="500" x2="575" y2="550" style="stroke: rgb(146,229,44); stroke-width: 2" />
<line x1="575" y1="550" x2="525" y2="550" style="stroke: rgb(146,229,44); stroke-width: 2" />
<line x1="525" y1="550" x2="525" y2="500" style="stroke: rgb(146,229,44); stroke-width: 2" />
<line x1="600" y1="500" x2="650" y2="500" style="stroke: rgb(244,26,62); stroke-width: 2" />
<line x1="650" y1="500" x2="650" y2="550" style="stroke: rgb(244,26,62); stroke-width: 2" />
<line x1="650" y1="550" x2="600" y2="550" style="stroke: rgb(244,26,62); stroke-width: 2" />
<line x1="600" y1="550" x2="600" y2="500" style="stroke: rgb(244,26,62); stroke-width: 2" />
<line x1="675" y1="500" x2="725" y2="500" style="stroke: rgb(221,51,149); stroke-width: 2" />
<line x1="725" y1="500" x2="725" y2="550" style="stroke: rgb(221,51,149); stroke-width: 2" />
<line x1="725" y1="550" x2="675" y2="550" style="stroke: rgb(221,51,149); stroke-width: 2" />
<line x1="675" y1="550" x2="675" y2="500" style="stroke: rgb(221,51,149); stroke-width: 2" />
</svg>
