<!-- Program: Recursive -->
<svg width="800" height="800">
<line x1="0" y1="0" x2="750" y2="0" style="stroke: rgb(0,0,0); stroke-width: 1" />
<line x1="750" y1="0" x2="750" y2="747" style="stroke: rgb(0,0,0); stroke-width: 1" />
<line x1="750" y1="747" x2="6" y2="747" style="stroke: rgb(0,0,0); stroke-width: 1" />
<line x1="6" y1="747" x2="6" y2="6" style="stroke: rgb(0,0,0); stroke-width: 1" />
<line x1="6" y1="6" x2="744" y2="6" style="stroke: rgb(0,0,0); stroke-width: 1" />
<line x1="744" y1="6" x2="744" y2="741" style="stroke: rgb(0,0,0); stroke-width: 1" />
<line x1="744" y1="741" x2="12" y2="741" style="stroke: rgb(0,0,0); stroke-width: 1" />
<line x1="12" y1="741" x2="12" y2="12" style="stroke: rgb(0,0,0); stroke-width: 1" />
<line x1="12" y1="12" x2="738" y2="12" style="stroke: rgb(0,0,0); stroke-width: 1" />
<line x1="738" y1="12" x2="738" y2="735" style="stroke: rgb(0,0,0); stroke-width: 1" />
<line x1="738" y1="735" x2="18" y2="735" style="stroke: rgb(0,0,0); stroke-width: 1" />
<line x1="18" y1="735" x2="18" y2="18" style="stroke: rgb(0,0,0); stroke-width: 1" />
<line x1="18" y1="18" x2="732" y2="18" style="stroke: rgb(0,0,0); stroke-width: 1" />
<line x1="732" y1="18" x2="732" y2="729" style="stroke: rgb(0,0,0); stroke-width: 1" />
<line x1="732" y1="729" x2="24" y2="729" style="stroke: rgb(0,0,0); stroke-width: 1" />
<line x1="24" y1="729" x2="24" y2="24" style="stroke: rgb(0,0,0); stroke-width: 1" />
<line x1="24" y1="24" x2="726" y2="24" style="stroke: rgb(0,0,0); stroke-width: 1" />
<line x1="726" y1="24" x2="726" y2="723" style="stroke: rgb(0,0,0); stroke-width: 1" />
<line x1="726" y1="723" x2="30" y2="723" style="stroke: rgb(0,0,0); stroke-width: 1" />
<line x1="30" y1="723" x2="30" y2="30" style="stroke: rgb(0,0,0); stroke-width: 1" />
<line x1="30" y1="30" x2="720" y2="30" style="stroke: rgb(0,0,0); stroke-width: 1" />
<line x1="720" y1="30" x2="720" y2="717" style="stroke: rgb(0,0,0); stroke-width: 1" />
<line x1="720" y1="717" x2="36" y2="717" style="stroke: rgb(0,0,0); stroke-width: 1" />
<line x1="36" y1="717" x2="36" y2="36" style="stroke: rgb(0,0,0); stroke-width: 1" />
<line x1="36" y1="36" x2="714" y2="36" style="stroke: rgb(0,0,0); stroke-width: 1" />
<line x1="714" y1="36" x2="714" y2="711" style="stroke: rgb(0,0,0); stroke-width: 1" />
<line x1="714" y1="711" x2="42" y2="711" style="stroke: rgb(0,0,0); stroke-width: 1" />
<line x1="42" y1="711" x2="42" y2="42" style="stroke: rgb(0,0,0); stroke-width: 1" />
<line x1="42" y1="42" x2="708" y2="42" style="stroke: rgb(0,0,0); stroke-width: 1" />
<line x1="708" y1="42" x2="708" y2="705" style="stroke: rgb(0,0,0); stroke-width: 1" />
<line x1="708" y1="705" x2="48" y2="705" style="stroke: rgb(0,0,0); stroke-width: 1" />
<line x1="48" y1="705" x2="48" y2="48" style="stroke: rgb(0,0,0); stroke-width: 1" />
<line x1="48" y1="48" x2="702" y2="48" style="stroke: rgb(0,0,0); stroke-width: 1" />
<line x1="702" y1="48" x2="702" y2="699" style="stroke: rgb(0,0,0); stroke-width: 1" />
<line x1="702" y1="699" x2="54" y2="699" style="stroke: rgb(0,0,0); stroke-width: 1" />
<line x1="54" y1="699" x2="54" y2="54" style="stroke: rgb(0,0,0); stroke-width: 1" />
<line x1="54" y1="54" x2="696" y2="54" style="stroke: rgb(0,0,0); stroke-width: 1" />
<line x1="696" y1="54" x2="696" y2="693" style="stroke: rgb(0,0,0); stroke-width: 1" />
<line x1="696" y1="693" x2="60" y2="693" style="stroke: rgb(0,0,0); stroke-width: 1" />
<line x1="60" y1="693" x2="60" y2="60" style="stroke: rgb(0,0,0); stroke-width: 1" />
<line x1="60" y1="60" x2="690" y2="60" style="stroke: rgb(0,0,0); stroke-width: 1" />
<line x1="690" y1="60" x2="690" y2="687" style="stroke: rgb(0,0,0); stroke-width: 1" />
<line x1="690" y1="687" x2="66" y2="687" style="stroke: rgb(0,0,0); stroke-width: 1" />
<line x1="66" y1="687" x2="66" y2="66" style="stroke: rgb(0,0,0); stroke-width: 1" />
<line x1="66" y1="66" x2="684" y2="66" style="stroke: rgb(0,0,0); stroke-width: 1" />
<line x1="684" y1="66" x2="684" y2="681" style="stroke: rgb(0,0,0); stroke-width: 1" />
<line x1="684" y1="681" x2="72" y2="681" style="stroke: rgb(0,0,0); stroke-width: 1" />
<line x1="72" y1="681" x2="72" y2="72" style="stroke: rgb(0,0,0); stroke-width: 1" />
<line x1="72" y1="72" x2="678" y2="72" style="stroke: rgb(0,0,0); stroke-width: 1" />
<line x1="678" y1="72" x2="678" y2="675" style="stroke: rgb(0,0,0); stroke-width: 1" />
<line x1="678" y1="675" x2="78" y2="675" style="stroke: rgb(0,0,0); stroke-width: 1" />
<line x1="78" y1="675" x2="78" y2="78" style="stroke: rgb(0,0,0); stroke-width: 1" />
<line x1="78" y1="78" x2="672" y2="78" style="stroke: rgb(0,0,0); stroke-width: 1" />
<line x1="672" y1="78" x2="672" y2="669" style="stroke: rgb(0,0,0); stroke-width: 1" />
<line x1="672" y1="669" x2="84" y2="669" style="stroke: rgb(0,0,0); stroke-width: 1" />
<line x1="84" y1="669" x2="84" y2="84" style="stroke: rgb(0,0,0); stroke-width: 1" />
<line x1="84" y1="84" x2="666" y2="84" style="stroke: rgb(0,0,0); stroke-width: 1" />
<line x1="666" y1="84" x2="666" y2="663" style="stroke: rgb(0,0,0); stroke-width: 1" />
<line x1="666" y1="663" x2="90" y2="663" style="stroke: rgb(0,0,0); stroke-width: 1" />
<line x1="90" y1="663" x2="90" y2="90" style="stroke: rgb(0,0,0); stroke-width: 1" />
<line x1="90" y1="90" x2="660" y2="90" style="stroke: rgb(0,0,0); stroke-width: 1" />
<line x1="660" y1="90" x2="660" y2="657" style="stroke: rgb(0,0,0); stroke-width: 1" />
<line x1="660" y1="657" x2="96" y2="657" style="stroke: rgb(0,0,0); stroke-width: 1" />
<line x1="96" y1="657" x2="96" y2="96" style="stroke: rgb(0,0,0); stroke-width: 1" />
<line x1="96" y1="96" x2="654" y2="96" style="stroke: rgb(0,0,0); stroke-width: 1" />
<line x1="654" y1="96" x2="654" y2="651" style="stroke: rgb(0,0,0); stroke-width: 1" />
<line x1="654" y1="651" x2="102" y2="651" style="stroke: rgb(0,0,0); stroke-width: 1" />
<line x1="102" y1="651" x2="102" y2="102" style="stroke: rgb(0,0,0); stroke-width: 1" />
<line x1="102" y1="102" x2="648" y2="102" style="stroke: rgb(0,0,0); stroke-width: 1" />
<line x1="648" y1="102" x2="648" y2="645" style="stroke: rgb(0,0,0); stroke-width: 1" />
<line x1="648" y1="645" x2="108" y2="645" style="stroke: rgb(0,0,0); stroke-width: 1" />
<line x1="108" y1="645" x2="108" y2="108" style="stroke: rgb(0,0,0); stroke-width: 1" />
<line x1="108" y1="108" x2="642" y2="108" style="stroke: rgb(0,0,0); stroke-width: 1" />
<line x1="642" y1="108" x2="642" y2="639" style="stroke: rgb(0,0,0); stroke-width: 1" />
<line x1="642" y1="639" x2="114" y2="639" style="stroke: rgb(0,0,0); stroke-width: 1" />
<line x1="114" y1="639" x2="114" y2="114" style="stroke: rgb(0,0,0); stroke-width: 1" />
<line x1="114" y1="114" x2="636" y2="114" style="stroke: rgb(0,0,0); stroke-width: 1" />
<line x1="636" y1="114" x2="636" y2="633" style="stroke: rgb(0,0,0); stroke-width: 1" />
<line x1="636" y1="633" x2="120" y2="633" style="stroke: rgb(0,0,0); stroke-width: 1" />
<line x1="120" y1="633" x2="120" y2="120" style="stroke: rgb(0,0,0); stroke-width: 1" />
<line x1="120" y1="120" x2="630" y2="120" style="stroke: rgb(0,0,0); stroke-width: 1" />
<line x1="630" y1="120" x2="630" y2="627" style="stroke: rgb(0,0,0); stroke-width: 1" />
<line x1="630" y1="627" x2="126" y2="627" style="stroke: rgb(0,0,0); stroke-width: 1" />
<line x1="126" y1="627" x2="126" y2="126" style="stroke: rgb(0,0,0); stroke-width: 1" />
<line x1="126" y1="126" x2="624" y2="126" style="stroke: rgb(0,0,0); stroke-width: 1" />
<line x1="624" y1="126" x2="624" y2="621" style="stroke: rgb(0,0,0); stroke-width: 1" />
<line x1="624" y1="621" x2="132" y2="621" style="stroke: rgb(0,0,0); stroke-width: 1" />
<line x1="132" y1="621" x2="132" y2="132" style="stroke: rgb(0,0,0); stroke-width: 1" />
<line x1="132" y1="132" x2="618" y2="132" style="stroke: rgb(0,0,0); stroke-width: 1" />
<line x1="618" y1="132" x2="618" y2="615" style="stroke: rgb(0,0,0); stroke-width: 1" />
<line x1="618" y1="615" x2="138" y2="615" style="stroke: rgb(0,0,0); stroke-width: 1" />
<line x1="138" y1="615" x2="138" y2="138" style="stroke: rgb(0,0,0); stroke-width: 1" />
<line x1="138" y1="138" x2="612" y2="138" style="stroke: rgb(0,0,0); stroke-width: 1" />
<line x1="612" y1="138" x2="612" y2="609" style="stroke: rgb(0,0,0); stroke-width: 1" />
<line x1="612" y1="609" x2="144" y2="609" style="stroke: rgb(0,0,0); stroke-width: 1" />
<line x1="144" y1="609" x2="144" y2="144" style="stroke: rgb(0,0,0); stroke-width: 1" />
<line x1="144" y1="144" x2="606" y2="144" style="stroke: rgb(0,0,0); stroke-width: 1" />
<line x1="606" y1="144" x2="606" y2="603" style="stroke: rgb(0,0,0); stroke-width: 1" />
<line x1="606" y1="603" x2="150" y2="603" style="stroke: rgb(0,0,0); stroke-width: 1" />
<line x1="150" y1="603" x2="150" y2="150" style="stroke: rgb(0,0,0); stroke-width: 1" />
<line x1="150" y1="150" x2="600" y2="150" style="stroke: rgb(0,0,0); stroke-width: 1" />
<line x1="600" y1="150" x2="600" y2="597" style="stroke: rgb(0,0,0); stroke-width: 1" />
<line x1="600" y1="597" x2="156" y2="597" style="stroke: rgb(0,0,0); stroke-width: 1" />
<line x1="156" y1="597" x2="156" y2="156" style="stroke: rgb(0,0,0); stroke-width: 1" />
<line x1="156" y1="156" x2="594" y2="156" style="stroke: rgb(0,0,0); stroke-width: 1" />
<line x1="594" y1="156" x2="594" y2="591" style="stroke: rgb(0,0,0); stroke-width: 1" />
<line x1="594" y1="591" x2="162" y2="591" style="stroke: rgb(0,0,0); stroke-width: 1" />
<line x1="162" y1="591" x2="162" y2="162" style="stroke: rgb(0,0,0); stroke-width: 1" />
<line x1="162" y1="162" x2="588" y2="162" style="stroke: rgb(0,0,0); stroke-width: 1" />
<line x1="588" y1="162" x2="588" y2="585" style="stroke: rgb(0,0,0); stroke-width: 1" />
<line x1="588" y1="585" x2="168" y2="585" style="stroke: rgb(0,0,0); stroke-width: 1" />
<line x1="168" y1="585" x2="168" y2="168" style="stroke: rgb(0,0,0); stroke-width: 1" />
<line x1="168" y1="168" x2="582" y2="168" style="stroke: rgb(0,0,0); stroke-width: 1" />
<line x1="582" y1="168" x2="582" y2="579" style="stroke: rgb(0,0,0); stroke-width: 1" />
<line x1="582" y1="579" x2="174" y2="579" style="stroke: rgb(0,0,0); stroke-width: 1" />
<line x1="174" y1="579" x2="174" y2="174" style="stroke: rgb(0,0,0); stroke-width: 1" />
<line x1="174" y1="174" x2="576" y2="174" style="stroke: rgb(0,0,0); stroke-width: 1" />
<line x1="576" y1="174" x2="576" y2="573" style="stroke: rgb(0,0,0); stroke-width: 1" />
<line x1="576" y1="573" x2="180" y2="573" style="stroke: rgb(0,0,0); stroke-width: 1" />
<line x1="180" y1="573" x2="180" y2="180" style="stroke: rgb(0,0,0); stroke-width: 1" />
<line x1="180" y1="180" x2="570" y2="180" style="stroke: rgb(0,0,0); stroke-width: 1" />
<line x1="570" y1="180" x2="570" y2="567" style="stroke: rgb(0,0,0); stroke-width: 1" />
<line x1="570" y1="567" x2="186" y2="567" style="stroke: rgb(0,0,0); stroke-width: 1" />
<line x1="186" y1="567" x2="186" y2="186" style="stroke: rgb(0,0,0); stroke-width: 1" />
<line x1="186" y1="186" x2="564" y2="186" style="stroke: rgb(0,0,0); stroke-width: 1" />
<line x1="564" y1="186" x2="564" y2="561" style="stroke: rgb(0,0,0); stroke-width: 1" />
<line x1="564" y1="561" x2="192" y2="561" style="stroke: rgb(0,0,0); stroke-width: 1" />
<line x1="192" y1="561" x2="192" y2="192" style="stroke: rgb(0,0,0); stroke-width: 1" />
<line x1="192" y1="192" x2="558" y2="192" style="stroke: rgb(0,0,0); stroke-width: 1" />
<line x1="558" y1="192" x2="558" y2="555" style="stroke: rgb(0,0,0); stroke-width: 1" />
<line x1="558" y1="555" x2="198" y2="555" style="stroke: rgb(0,0,0); stroke-width: 1" />
<line x1="198" y1="555" x2="198" y2="198" style="stroke: rgb(0,0,0); stroke-width: 1" />
<line x1="198" y1="198" x2="552" y2="198" style="stroke: rgb(0,0,0); stroke-width: 1" />
<line x1="552" y1="198" x2="552" y2="549" style="stroke: rgb(0,0,0); stroke-width: 1" />
<line x1="552" y1="549" x2="204" y2="549" style="stroke: rgb(0,0,0); stroke-width: 1" />
<line x1="204" y1="549" x2="204" y2="204" style="stroke: rgb(0,0,0); stroke-width: 1" />
<line x1="204" y1="204" x2="546" y2="204" style="stroke: rgb(0,0,0); stroke-width: 1" />
<line x1="546" y1="204" x2="546" y2="543" style="stroke: rgb(0,0,0); stroke-width: 1" />
<line x1="546" y1="543" x2="210" y2="543" style="stroke: rgb(0,0,0); stroke-width: 1" />
<line x1="210" y1="543" x2="210" y2="210" style="stroke: rgb(0,0,0); stroke-width: 1" />
<line x1="210" y1="210" x2="540" y2="210" style="stroke: rgb(0,0,0); stroke-width: 1" />
<line x1="540" y1="210" x2="540" y2="537" style="stroke: rgb(0,0,0); stroke-width: 1" />
<line x1="540" y1="537" x2="216" y2="537" style="stroke: rgb(0,0,0); stroke-width: 1" />
<line x1="216" y1="537" x2="216" y2="216" style="stroke: rgb(0,0,0); stroke-width: 1" />
<line x1="216" y1="216" x2="534" y2="216" style="stroke: rgb(0,0,0); stroke-width: 1" />
<line x1="534" y1="216" x2="534" y2="531" style="stroke: rgb(0,0,0); stroke-width: 1" />
<line x1="534" y1="531" x2="222" y2="531" style="stroke: rgb(0,0,0); stroke-width: 1" />
<line x1="222" y1="531" x2="222" y2="222" style="stroke: rgb(0,0,0); stroke-width: 1" />
<line x1="222" y1="222" x2="528" y2="222" style="stroke: rgb(0,0,0); stroke-width: 1" />
<line x1="528" y1="222" x2="528" y2="525" style="stroke: rgb(0,0,0); stroke-width: 1" />
<line x1="528" y1="525" x2="228" y2="525" style="stroke: rgb(0,0,0); stroke-width: 1" />
<line x1="228" y1="525" x2="228" y2="228" style="stroke: rgb(0,0,0); stroke-width: 1" />
<line x1="228" y1="228" x2="522" y2="228" style="stroke: rgb(0,0,0); stroke-width: 1" />
<line x1="522" y1="228" x2="522" y2="519" style="stroke: rgb(0,0,0); stroke-width: 1" />
<line x1="522" y1="519" x2="234" y2="519" style="stroke: rgb(0,0,0); stroke-width: 1" />
<line x1="234" y1="519" x2="234" y2="234" style="stroke: rgb(0,0,0); stroke-width: 1" />
<line x1="234" y1="234" x2="516" y2="234" style="stroke: rgb(0,0,0); stroke-width: 1" />
<line x1="516" y1="234" x2="516" y2="513" style="stroke: rgb(0,0,0); stroke-width: 1" />
<line x1="516" y1="513" x2="240" y2="513" style="stroke: rgb(0,0,0); stroke-width: 1" />
<line x1="240" y1="513" x2="240" y2="240" style="stroke: rgb(0,0,0); stroke-width: 1" />
<line x1="240" y1="240" x2="510" y2="240" style="stroke: rgb(0,0,0); stroke-width: 1" />
<line x1="510" y1="240" x2="510" y2="507" style="stroke: rgb(0,0,0); stroke-width: 1" />
<line x1="510" y1="507" x2="246" y2="507" style="stroke: rgb(0,0,0); stroke-width: 1" />
<line x1="246" y1="507" x2="246" y2="246" style="stroke: rgb(0,0,0); stroke-width: 1" />
<line x1="246" y1="246" x2="504" y2="246" style="stroke: rgb(0,0,0); stroke-width: 1" />
<line x1="504" y1="246" x2="504" y2="501" style="stroke: rgb(0,0,0); stroke-width: 1" />
<line x1="504" y1="501" x2="252" y2="501" style="stroke: rgb(0,0,0); stroke-width: 1" />
<line x1="252" y1="501" x2="252" y2="252" style="stroke: rgb(0,0,0); stroke-width: 1" />
<line x1="252" y1="252" x2="498" y2="252" style="stroke: rgb(0,0,0); stroke-width: 1" />
<line x1="498" y1="252" x2="498" y2="495" style="stroke: rgb(0,0,0); stroke-width: 1" />
<line x1="498" y1="495" x2="258" y2="495" style="stroke: rgb(0,0,0); stroke-width: 1" />
<line x1="258" y1="495" x2="258" y2="258" style="stroke: rgb(0,0,0); stroke-width: 1" />
<line x1="258" y1="258" x2="492" y2="258" style="stroke: rgb(0,0,0); stroke-width: 1" />
<line x1="492" y1="258" x2="492" y2="489" style="stroke: rgb(0,0,0); stroke-width: 1" />
<line x1="492" y1="489" x2="264" y2="489" style="stroke: rgb(0,0,0); stroke-width: 1" />
<line x1="264" y1="489" x2="264" y2="264" style="stroke: rgb(0,0,0); stroke-width: 1" />
<line x1="264" y1="264" x2="486" y2="264" style="stroke: rgb(0,0,0); stroke-width: 1" />
<line x1="486" y1="264" x2="486" y2="483" style="stroke: rgb(0,0,0); stroke-width: 1" />
<line x1="486" y1="483" x2="270" y2="483" style="stroke: rgb(0,0,0); stroke-width: 1" />
<line x1="270" y1="483" x2="270" y2="270" style="stroke: rgb(0,0,0); stroke-width: 1" />
<line x1="270" y1="270" x2="480" y2="270" style="stroke: rgb(0,0,0); stroke-width: 1" />
<line x1="480" y1="270" x2="480" y2="477" style="stroke: rgb(0,0,0); stroke-width: 1" />
<line x1="480" y1="477" x2="276" y2="477" style="stroke: rgb(0,0,0); stroke-width: 1" />
<line x1="276" y1="477" x2="276" y2="276" style="stroke: rgb(0,0,0); stroke-width: 1" />
<line x1="276" y1="276" x2="474" y2="276" style="stroke: rgb(0,0,0); stroke-width: 1" />
<line x1="474" y1="276" x2="474" y2="471" style="stroke: rgb(0,0,0); stroke-width: 1" />
<line x1="474" y1="471" x2="282" y2="471" style="stroke: rgb(0,0,0); stroke-width: 1" />
<line x1="282" y1="471" x2="282" y2="282" style="stroke: rgb(0,0,0); stroke-width: 1" />
<line x1="282" y1="282" x2="468" y2="282" style="stroke: rgb(0,0,0); stroke-width: 1" />
<line x1="468" y1="282" x2="468" y2="465" style="stroke: rgb(0,0,0); stroke-width: 1" />
<line x1="468" y1="465" x2="288" y2="465" style="stroke: rgb(0,0,0); stroke-width: 1" />
<line x1="288" y1="465" x2="288" y2="288" style="stroke: rgb(0,0,0); stroke-width: 1" />
<line x1="288" y1="288" x2="462" y2="288" style="stroke: rgb(0,0,0); stroke-width: 1" />
<line x1="462" y1="288" x2="462" y2="459" style="stroke: rgb(0,0,0); stroke-width: 1" />
<line x1="462" y1="459" x2="294" y2="459" style="stroke: rgb(0,0,0); stroke-width: 1" />
<line x1="294" y1="459" x2="294" y2="294" style="stroke: rgb(0,0,0); stroke-width: 1" />
<line x1="294" y1="294" x2="456" y2="294" style="stroke: rgb(0,0,0); stroke-width: 1" />
<line x1="456" y1="294" x2="456" y2="453" style="stroke: rgb(0,0,0); stroke-width: 1" />
<line x1="456" y1="453" x2="300" y2="453" style="stroke: rgb(0,0,0); stroke-width: 1" />
<line x1="300" y1="453" x2="300" y2="300" style="stroke: rgb(0,0,0); stroke-width: 1" />
<line x1="300" y1="300" x2="450" y2="300" style="stroke: rgb(0,0,0); stroke-width: 1" />
<line x1="450" y1="300" x2="450" y2="447" style="stroke: rgb(0,0,0); stroke-width: 1" />
<line x1="450" y1="447" x2="306" y2="447" style="stroke: rgb(0,0,0); stroke-width: 1" />
<line x1="306" y1="447" x2="306" y2="306" style="stroke: rgb(0,0,0); stroke-width: 1" />
<line x1="306" y1="306" x2="444" y2="306" style="stroke: rgb(0,0,0); stroke-width: 1" />
<line x1="444" y1="306" x2="444" y2="441" style="stroke: rgb(0,0,0); stroke-width: 1" />
<line x1="444" y1="441" x2="312" y2="441" style="stroke: rgb(0,0,0); stroke-width: 1" />
<line x1="312" y1="441" x2="312" y2="312" style="stroke: rgb(0,0,0); stroke-width: 1" />
<line x1="312" y1="312" x2="438" y2="312" style="stroke: rgb(0,0,0); stroke-width: 1" />
<line x1="438" y1="312" x2="438" y2="435" style="stroke: rgb(0,0,0); stroke-width: 1" />
<line x1="438" y1="435" x2="318" y2="435" style="stroke: rgb(0,0,0); stroke-width: 1" />
<line x1="318" y1="435" x2="318" y2="318" style="stroke: rgb(0,0,0); stroke-width: 1" />
<line x1="318" y1="318" x2="432" y2="318" style="stroke: rgb(0,0,0); stroke-width: 1" />
<line x1="432" y1="318" x2="432" y2="429" style="stroke: rgb(0,0,0); stroke-width: 1" />
<line x1="432" y1="429" x2="324" y2="429" style="stroke: rgb(0,0,0); stroke-width: 1" />
<line x1="324" y1="429" x2="324" y2="324" style="stroke: rgb(0,0,0); stroke-width: 1" />
<line x1="324" y1="324" x2="426" y2="324" style="stroke: rgb(0,0,0); stroke-width: 1" />
<line x1="426" y1="324" x2="426" y2="423" style="stroke: rgb(0,0,0); stroke-width: 1" />
<line x1="426" y1="423" x2="330" y2="423" style="stroke: rgb(0,0,0); stroke-width: 1" />
<line x1="330" y1="423" x2="330" y2="330" style="stroke: rgb(0,0,0); stroke-width: 1" />
<line x1="330" y1="330" x2="420" y2="330" style="stroke: rgb(0,0,0); stroke-width: 1" />
<line x1="420" y1="330" x2="420" y2="417" style="stroke: rgb(0,0,0); stroke-width: 1" />
<line x1="420" y1="417" x2="336" y2="417" style="stroke: rgb(0,0,0); stroke-width: 1" />
<line x1="336" y1="417" x2="336" y2="336" style="stroke: rgb(0,0,0); stroke-width: 1" />
<line x1="336" y1="336" x2="414" y2="336" style="stroke: rgb(0,0,0); stroke-width: 1" />
<line x1="414" y1="336" x2="414" y2="411" style="stroke: rgb(0,0,0); stroke-width: 1" />
<line x1="414" y1="411" x2="342" y2="411" style="stroke: rgb(0,0,0); stroke-width: 1" />
<line x1="342" y1="411" x2="342" y2="342" style="stroke: rgb(0,0,0); stroke-width: 1" />
<line x1="342" y1="342" x2="408" y2="342" style="stroke: rgb(0,0,0); stroke-width: 1" />
<line x1="408" y1="342" x2="408" y2="405" style="stroke: rgb(0,0,0); stroke-width: 1" />
<line x1="408" y1="405" x2="348" y2="405" style="stroke: rgb(0,0,0); stroke-width: 1" />
<line x1="348" y1="405" x2="348" y2="348" style="stroke: rgb(0,0,0); stroke-width: 1" />
<line x1="348" y1="348" x2="402" y2="348" style="stroke: rgb(0,0,0); stroke-width: 1" />
<line x1="402" y1="348" x2="402" y2="399" style="stroke: rgb(0,0,0); stroke-width: 1" />
<line x1="402" y1="399" x2="354" y2="399" style="stroke: rgb(0,0,0); stroke-width: 1" />
<line x1="354" y1="399" x2="354" y2="354" style="stroke: rgb(0,0,0); stroke-width: 1" />
<line x1="354" y1="354" x2="396" y2="354" style="stroke: rgb(0,0,0); stroke-width: 1" />
<line x1="396" y1="354" x2="396" y2="393" style="stroke: rgb(0,0,0); stroke-width: 1" />
<line x1="396" y1="393" x2="360" y2="393" style="stroke: rgb(0,0,0); stroke-width: 1" />
<line x1="360" y1="393" x2="360" y2="360" style="stroke: rgb(0,0,0); stroke-width: 1" />
<line x1="360" y1="360" x2="390" y2="360" style="stroke: rgb(0,0,0); stroke-width: 1" />
<line x1="390" y1="360" x2="390" y2="387" style="stroke: rgb(0,0,0); stroke-width: 1" />
<line x1="390" y1="387" x2="366" y2="387" style="stroke: rgb(0,0,0); stroke-width: 1" />
<line x1="366" y1="387" x2="366" y2="366" style="stroke: rgb(0,0,0); stroke-width: 1" />
<line x1="366" y1="366" x2="384" y2="366" style="stroke: rgb(0,0,0); stroke-width: 1" />
<line x1="384" y1="366" x2="384" y2="381" style="stroke: rgb(0,0,0); stroke-width: 1" />
<line x1="384" y1="381" x2="372" y2="381" style="stroke: rgb(0,0,0); stroke-width: 1" />
<line x1="372" y1="381" x2="372" y2="372" style="stroke: rgb(0,0,0); stroke-width: 1" />
<line x1="372" y1="372" x2="378" y2="372" style="stroke: rgb(0,0,0); stroke-width: 1" />
<line x1="378" y1="372" x2="378" y2="375" style="stroke: rgb(0,0,0); stroke-width: 1" />
<line x1="378" y1="375" x2="0" y2="0" style="stroke: rgb(0,0,0); stroke-width: 1" />
</svg>
