<!-- Program: Triangles -->
<svg width="800" height="800">
<line x1="0" y1="350" x2="25" y2="300" style="stroke: rgb(30,255,100); stroke-width: 3" />
<line x1="25" y1="300" x2="50" y2="350" style="stroke: rgb(30,255,100); stroke-width: 3" />
<line x1="50" y1="350" x2="0" y2="350" style="stroke: rgb(30,255,100); stroke-width: 3" />
<line x1="50" y1="350" x2="75" y2="300" style="stroke: rgb(30,255,100); stroke-width: 3" />
<line x1="75" y1="300" x2="100" y2="350" style="stroke: rgb(30,255,100); stroke-width: 3" />
<line x1="100" y1="350" x2="50" y2="350" style="stroke: rgb(30,255,100); stroke-width: 3" />
<line x1="100" y1="350" x2="125" y2="300" style="stroke: rgb(30,255,100); stroke-width: 3" />
<line x1="125" y1="300" x2="150" y2="350" style="stroke: rgb(30,255,100); stroke-width: 3" />
<line x1="150" y1="350" x2="100" y2="350" style="stroke: rgb(30,255,100); stroke-width: 3" />
<line x1="150" y1="350" x2="175" y2="300" style="stroke: rgb(30,255,100); stroke-width: 3" />
<line x1="175" y1="300" x2="200" y2="350" style="stroke: rgb(30,255,100); stroke-width: 3" />
<line x1="200" y1="350" x2="150" y2="350" style="stroke: rgb(30,255,100); stroke-width: 3" />
<line x1="200" y1="350" x2="225" y2="300" style="stroke: rgb(30,255,100); stroke-width: 3" />
<line x1="225" y1="300" x2="250" y2="350" style="stroke: rgb(30,255,100); stroke-width: 3" />
<line x1="250" y1="350" x2="200" y2="350" style="stroke: rgb(30,255,100); stroke-width: 3" />
<line x1="250" y1="350" x2="275" y2="300" style="stroke: rgb(30,255,100); stroke-width: 3" />
<line x1="275" y1="300" x2="300" y2="350" style="stroke: rgb(30,255,100); stroke-width: 3" />
<line x1="300" y1="350" x2="250" y2="350" style="stroke: rgb(30,255,100); stroke-width: 3" />
<line x1="300" y1="350" x2="325" y2="300" style="stroke: rgb(30,255,100); stroke-width: 3" />
<line x1="325" y1="300" x2="350" y2="350" style="stroke: rgb(30,255,100); stroke-width: 3" />
<line x1="350" y1="350" x2="300" y2="350" style="stroke: rgb(30,255,100); stroke-width: 3" />
<line x1="25" y1="300" x2="50" y2="250" style="stroke: rgb(30,255,100); stroke-width: 3" />
<line x1="50" y1="250" x2="75" y2="300" style="stroke: rgb(30,255,100); stroke-width: 3" />
<line x1="75" y1="300" x2="25" y2="300" style="stroke: rgb(30,255,100); stroke-width: 3" />
<line x1="75" y1="300" x2="100" y2="250" style="stroke: rgb(30,255,100); stroke-width: 3" />
<line x1="100" y1="250" x2="125" y2="300" style="stroke: rgb(30,255,100); stroke-width: 3" />
<line x1="125" y1="300" x2="75" y2="300" style="stroke: rgb(30,255,100); stroke-width: 3" />
<line x1="125" y1="300" x2="150" y2="250" style="stroke: rgb(30,255,100); stroke-width: 3" />
<line x1="150" y1="250" x2="175" y2="300" style="stroke: rgb(30,255,100); stroke-width: 3" />
<line x1="175" y1="300" x2="125" y2="300" style="stroke: rgb(30,255,100); stroke-width: 3" />
<line x1="175" y1="300" x2="200" y2="250" style="stroke: rgb(30,255,100); stroke-width: 3" />
<line x1="200" y1="250" x2="225" y2="300" style="stroke: rgb(30,255,100); stroke-width: 3" />
<line x1="225" y1="300" x2="175" y2="300" style="stroke: rgb(30,255,100); stroke-width: 3" />
<line x1="225" y1="300" x2="250" y2="250" style="stroke: rgb(30,255,100); stroke-width: 3" />
<line x1="250" y1="250" x2="275" y2="300" style="stroke: rgb(30,255,100); stroke-width: 3" />
<line x1="275" y1="300" x2="225" y2="300" style="stroke: rgb(30,255,100); stroke-width: 3" />
<line x1="275" y1="300" x2="300" y2="250" style="stroke: rgb(30,255,100); stroke-width: 3" />
<line x1="300" y1="250" x2="325" y2="300" style="stroke: rgb(30,255,100); stroke-width: 3" />
<line x1="325" y1="300" x2="275" y2="300" style="stroke: rgb(30,255,100); stroke-width: 3" />
<line x1="50" y1="250" x2="75" y2="200" style="stroke: rgb(30,255,100); stroke-width: 3" />
<line x1="75" y1="200" x2="100" y2="250" style="stroke: rgb(30,255,100); stroke-width: 3" />
<line x1="100" y1="250" x2="50" y2="250" style="stroke: rgb(30,255,100); stroke-width: 3" />
<line x1="100" y1="250" x2="125" y2="200" style="stroke: rgb(30,255,100); stroke-width: 3" />
<line x1="125" y1="200" x2="150" y2="250" style="stroke: rgb(30,255,100); stroke-width: 3" />
<line x1="150" y1="250" x2="100" y2="250" style="stroke: rgb(30,255,100); stroke-width: 3" />
<line x1="150" y1="250" x2="175" y2="200" style="stroke: rgb(30,255,100); stroke-width: 3" />
<line x1="175" y1="200" x2="200" y2="250" style="stroke: rgb(30,255,100); stroke-width: 3" />
<line x1="200" y1="250" x2="150" y2="250" style="stroke: rgb(30,255,100); stroke-width: 3" />
<line x1="200" y1="250" x2="225" y2="200" style="stroke: rgb(30,255,100); stroke-width: 3" />
<line x1="225" y1="200" x2="250" y2="250" style="stroke: rgb(30,255,100); stroke-width: 3" />
<line x1="250" y1="250" x2="200" y2="250" style="stroke: rgb(30,255,100); stroke-width: 3" />
<line x1="250" y1="250" x2="275" y2="200" style="stroke: rgb(30,255,100); stroke-width: 3" />
<line x1="275" y1="200" x2="300" y2="250" style="stroke: rgb(30,255,100); stroke-width: 3" />
<line x1="300" y1="250" x2="250" y2="250" style="stroke: rgb(30,255,100); stroke-width: 3" />
<line x1="75" y1="200" x2="100" y2="150" style="stroke: rgb(30,255,100); stroke-width: 3" />
<line x1="100" y1="150" x2="125" y2="200" style="stroke: rgb(30,255,100); stroke-width: 3" />
<line x1="125" y1="200" x2="75" y2="200" style="stroke: rgb(30,255,100); stroke-width: 3" />
<line x1="125" y1="200" x2="150" y2="150" style="stroke: rgb(30,255,100); stroke-width: 3" />
<line x1="150" y1="150" x2="175" y2="200" style="stroke: rgb(30,255,100); stroke-width: 3" />
<line x1="175" y1="200" x2="125" y2="200" style="stroke: rgb(30,255,100); stroke-width: 3" />
<line x1="175" y1="200" x2="200" y2="150" style="stroke: rgb(30,255,100); stroke-width: 3" />
<line x1="200" y1="150" x2="225" y2="200" style="stroke: rgb(30,255,100); stroke-width: 3" />
<line x1="225" y1="200" x2="175" y2="200" style="stroke: rgb(30,255,100); stroke-width: 3" />
<line x1="225" y1="200" x2="250" y2="150" style="stroke: rgb(30,255,100); stroke-width: 3" />
<line x1="250" y1="150" x2="275" y2="200" style="stroke: rgb(30,255,100); stroke-width: 3" />
<line x1="275" y1="200" x2="225" y2="200" style="stroke: rgb(30,255,100); stroke-width: 3" />
<line x1="100" y1="150" x2="125" y2="100" style="stroke: rgb(30,255,100); stroke-width: 3" />
<line x1="125" y1="100" x2="150" y2="150" style="stroke: rgb(30,255,100); stroke-width: 3" />
<line x1="150" y1="150" x2="100" y2="150" style="stroke: rgb(30,255,100); stroke-width: 3" />
<line x1="150" y1="150" x2="175" y2="100" style="stroke: rgb(30,255,100); stroke-width: 3" />
<line x1="175" y1="100" x2="200" y2="150" style="stroke: rgb(30,255,100); stroke-width: 3" />
<line x1="200" y1="150" x2="150" y2="150" style="stroke: rgb(30,255,100); stroke-width: 3" />
<line x1="200" y1="150" x2="225" y2="100" style="stroke: rgb(30,255,100); stroke-width: 3" />
<line x1="225" y1="100" x2="250" y2="150" style="stroke: rgb(30,255,100); stroke-width: 3" />
<line x1="250" y1="150" x2="200" y2="150" style="stroke: rgb(30,255,100); stroke-width: 3" />
<line x1="125" y1="100" x2="150" y2="50" style="stroke: rgb(30,255,100); stroke-width: 3" />
<line x1="150" y1="50" x2="175" y2="100" style="stroke: rgb(30,255,100); stroke-width: 3" />
<line x1="175" y1="100" x2="125" y2="100" style="stroke: rgb(30,255,100); stroke-width: 3" />
<line x1="175" y1="100" x2="200" y2="50" style="stroke: rgb(30,255,100); stroke-width: 3" />
<line x1="200" y1="50" x2="225" y2="100" style="stroke: rgb(30,255,100); stroke-width: 3" />
<line x1="225" y1="100" x2="175" y2="100" style="stroke: rgb(30,255,100); stroke-width: 3" />
<line x1="150" y1="50" x2="175" y2="0" style="stroke: rgb(30,255,100); stroke-width: 3" />
<line x1="175" y1="0" x2="200" y2="50" style="stroke: rgb(30,255,100); stroke-width: 3" />
<line x1="200" y1="50" x2="150" y2="50" style="stroke: rgb(30,255,100); stroke-width: 3" />
</svg>
